<svg width="32" class="platforms__Logo-sc-1q8o0ks-2 dlNxsF" viewBox="0 0 32 39" fill="none"><path d="M20 38.3189C21.2812 38.3189 22.3985 37.2016 22.3985 35.9204V30.3188H24C24.9611 30.3188 25.6016 29.678 25.6016 28.7172V12.7183H6.39838V28.7174C6.39838 29.6783 7.03899 30.3189 7.99991 30.3189H9.60157V35.9205C9.60157 37.2017 10.7186 38.319 12.0001 38.319C13.2812 38.319 14.3984 37.2017 14.3984 35.9205V30.3189H17.6016V35.9205C17.6014 37.2016 18.7187 38.3189 20 38.3189Z"></path><path d="M29.6017 28.7174C30.883 28.7174 32 27.6002 32 26.3188V15.1158C32 13.8413 30.883 12.7183 29.6017 12.7183C28.3204 12.7183 27.2032 13.8413 27.2032 15.1158V26.3188C27.2032 27.6001 28.3203 28.7174 29.6017 28.7174Z"></path><path d="M2.39827 28.7174C3.67963 28.7174 4.7968 27.6002 4.7968 26.3188V15.1158C4.7968 13.8413 3.67976 12.7183 2.39827 12.7183C1.11705 12.7183 0 13.8413 0 15.1158V26.3188C0 27.6001 1.11705 28.7174 2.39827 28.7174Z"></path><path d="M23.6796 0.241669C23.3594 -0.0805562 22.8827 -0.0805562 22.5625 0.241669L20.4145 2.38255L20.3154 2.48151C19.0417 1.84371 17.6137 1.5252 16.0234 1.52213C16.0156 1.52213 16.008 1.52187 16.0002 1.52187H15.9999C15.9919 1.52187 15.9844 1.52213 15.9764 1.52213C14.3862 1.5252 12.9582 1.84371 11.6847 2.48151L11.5853 2.38255L9.43739 0.241669C9.11696 -0.0805562 8.64052 -0.0805562 8.32034 0.241669C7.99991 0.562103 7.99991 1.03764 8.32034 1.35782L10.3982 3.43604C9.72867 3.88306 9.12156 4.43008 8.5936 5.05573C7.32963 6.55395 6.52343 8.50379 6.41257 10.6164C6.41155 10.6384 6.40937 10.6601 6.40835 10.6821C6.40157 10.826 6.39838 10.9706 6.39838 11.1157H25.6016C25.6016 10.9706 25.5981 10.826 25.5916 10.6821C25.5906 10.6601 25.5884 10.6384 25.5871 10.6164C25.4765 8.50379 24.6701 6.55382 23.4061 5.05586C22.8784 4.43021 22.271 3.88319 21.6015 3.43617L23.6796 1.35795C24 1.03764 24 0.562103 23.6796 0.241669ZM11.997 8.31941C11.3344 8.31941 10.7973 7.78224 10.7973 7.11963C10.7973 6.45703 11.3344 5.91986 11.997 5.91986C12.6596 5.91986 13.1968 6.45703 13.1968 7.11963C13.1968 7.78224 12.6596 8.31941 11.997 8.31941ZM20.0029 8.31941C19.3403 8.31941 18.8031 7.78224 18.8031 7.11963C18.8031 6.45703 19.3403 5.91986 20.0029 5.91986C20.6655 5.91986 21.2027 6.45703 21.2027 7.11963C21.2027 7.78224 20.6655 8.31941 20.0029 8.31941Z"></path></svg>