<svg width="32" class="platforms__Logo-sc-1q8o0ks-2 dlNxsF" viewBox="0 0 39 48"><path d="M19.8037 13.7915C17.9126 13.7915 14.9852 11.6358 11.9024 11.7137C7.83519 11.7656 4.10474 14.0772 2.00636 17.7394C-2.2163 25.0896 0.918317 35.9462 5.03736 41.92C7.05802 44.8289 9.44136 48.1015 12.6019 47.9976C15.6329 47.8677 16.7727 46.0237 20.4514 46.0237C24.1041 46.0237 25.1403 47.9976 28.3527 47.9197C31.6168 47.8677 33.6893 44.9588 35.684 42.0239C37.9897 38.6474 38.9482 35.3748 39 35.193C38.9223 35.1671 32.6531 32.7516 32.5753 25.4792C32.5235 19.4016 37.5234 16.4927 37.7565 16.3628C34.9069 12.1812 30.5288 11.7137 29.0003 11.6098C25.0108 11.2981 21.6689 13.7915 19.8037 13.7915V13.7915ZM26.5393 7.66195C28.2231 5.63608 29.3371 2.80505 29.0262 0C26.617 0.103891 23.7155 1.61031 21.9798 3.63618C20.4255 5.4283 19.0784 8.31127 19.441 11.0644C22.1093 11.2722 24.8554 9.68782 26.5393 7.66195"></path></svg>