<svg width="34" class="platforms__Logo-sc-1q8o0ks-2 dlNxsF" viewBox="0 0 42 42" fill="none"><path opacity="0.8" d="M13.1523 20.9986C13.1523 25.3261 16.673 28.8465 21.0007 28.8465C25.328 28.8465 28.8484 25.3259 28.8484 20.9986C28.8484 16.6711 25.328 13.1504 21.0007 13.1504C16.673 13.1504 13.1523 16.6711 13.1523 20.9986Z"></path><path opacity="0.6" d="M39.072 10.6403C39.1331 10.5327 39.132 10.4007 39.0688 10.2942C37.2408 7.21543 34.6392 4.63651 31.5456 2.8363C28.357 0.98073 24.7105 0 21.0006 0C14.5801 0 8.59659 2.88133 4.58416 7.90519C4.49562 8.01591 4.48405 8.16945 4.55497 8.29214L10.4666 18.5312C10.5286 18.6386 10.6429 18.7033 10.7646 18.7033C10.78 18.7033 10.7957 18.7022 10.8113 18.7001C10.9498 18.6812 11.0632 18.5805 11.0981 18.4451C12.2638 13.9285 16.3359 10.7741 21.0006 10.7741C21.29 10.7741 21.589 10.7873 21.8895 10.813C21.8992 10.8139 21.9092 10.8143 21.9189 10.8143H38.7727C38.8965 10.8143 39.0108 10.748 39.072 10.6403Z"></path><path opacity="0.8" d="M24.1031 30.9719C24.0176 30.8613 23.8741 30.8138 23.7387 30.8513C22.8496 31.0989 21.9282 31.2243 20.9999 31.2243C17.0559 31.2243 13.4209 28.9112 11.7392 25.3314C11.735 25.3226 11.7305 25.314 11.7257 25.3055L3.29265 10.6995C3.23123 10.5928 3.11749 10.5273 2.99452 10.5273C2.99397 10.5273 2.99328 10.5273 2.99273 10.5273C2.86907 10.528 2.75519 10.5948 2.6946 10.7025C0.931846 13.8305 0 17.3908 0 20.9987C0 26.06 1.82596 30.9489 5.14147 34.7648C8.42406 38.5427 12.9432 41.029 17.8669 41.7657C17.8839 41.7683 17.901 41.7694 17.918 41.7694C18.0395 41.7694 18.1538 41.7047 18.2159 41.5973L24.1291 31.3551C24.1991 31.2339 24.1887 31.0825 24.1031 30.9719Z"></path><path d="M40.2334 13.1113H28.3944C28.2545 13.1113 28.1285 13.196 28.0757 13.3255C28.0228 13.4549 28.0535 13.6036 28.1534 13.7014C30.1343 15.6433 31.2252 18.2352 31.2252 20.9997C31.2252 23.0925 30.5936 25.1066 29.3988 26.8243C29.3933 26.8323 29.3882 26.8404 29.3834 26.8488L20.9357 41.4802C20.8739 41.5873 20.8743 41.7194 20.9367 41.8263C20.9985 41.9319 21.1117 41.9966 21.2339 41.9966C21.2351 41.9966 21.2365 41.9966 21.2377 41.9966C26.7969 41.9346 32.0135 39.723 35.9265 35.7693C39.8427 31.8124 41.9994 26.5671 41.9994 20.9997C41.9994 18.3535 41.5131 15.773 40.5538 13.3299C40.502 13.1979 40.3749 13.1113 40.2334 13.1113Z"></path></svg>