<svg width="34" class="platforms__Logo-sc-1q8o0ks-2 dlNxsF" height="36" viewBox="0 0 31 36" fill="none"><path fill-rule="evenodd" clip-rule="evenodd" d="M3.20429 30.9402C3.17554 30.9223 3.15244 30.9037 3.13556 30.8845C2.92485 30.6457 3.06006 30.2167 3.21178 29.7352C3.28913 29.4898 3.37077 29.2307 3.41304 28.9763C3.4713 28.5787 3.40373 28.2597 3.34289 27.9725C3.32708 27.8978 3.31172 27.8253 3.29914 27.7542L3.29877 27.7521C3.26729 27.5732 3.25353 27.4026 3.29448 27.2272C3.31648 27.132 3.3873 27.0545 3.4918 26.9891C3.49499 26.9871 3.4982 26.9851 3.50145 26.9832C3.73111 26.8438 4.11517 26.7597 4.50224 26.675C4.89692 26.5886 5.29472 26.5015 5.53516 26.3544C5.66766 26.2733 5.77634 26.1581 5.87063 26.025C5.94881 25.9147 6.0171 25.7922 6.08087 25.6668C6.11918 25.5914 6.15585 25.515 6.19206 25.4396C6.24374 25.3319 6.29447 25.2262 6.34763 25.1284L6.34883 25.1262C6.44314 24.953 6.54518 24.8046 6.67381 24.7138C6.67846 24.7106 6.68323 24.7073 6.68795 24.7042C6.69786 24.6976 6.70792 24.6914 6.71815 24.6855C6.78797 24.6438 6.86661 24.6303 6.95109 24.6395C7.27443 24.6749 7.68352 25.0416 8.00937 25.4231C8.16986 25.611 8.31026 25.8024 8.41051 25.9597C8.47863 26.066 8.58423 26.2419 8.71419 26.4608C8.76445 26.5454 8.81836 26.6365 8.87516 26.7325C8.89862 26.7721 8.92257 26.8126 8.94696 26.8537C9.02195 26.9804 9.10109 27.1138 9.18283 27.251C9.24798 27.3603 9.31479 27.4719 9.38245 27.5843C9.39078 27.5981 9.39912 27.612 9.40748 27.6258C9.49447 27.7701 9.58273 27.9152 9.67057 28.0577C10.0493 28.6725 10.4206 29.2405 10.6513 29.4906C10.6633 29.5036 10.6753 29.5166 10.6873 29.5298C11.029 29.9056 11.3482 30.3535 11.4976 30.8086C11.567 31.0202 11.5998 31.2334 11.5811 31.4416C11.5763 31.4943 11.5683 31.5466 11.5567 31.5985C11.5318 31.7168 11.488 31.8299 11.4324 31.9361C11.4157 31.968 11.3979 31.9993 11.3793 32.03C11.3277 32.1147 11.2693 32.1944 11.2082 32.2683C11.0846 32.4176 10.9495 32.5432 10.8358 32.6376C10.6851 32.7627 10.5718 32.8335 10.5718 32.8335C10.5036 32.8547 10.4243 32.8664 10.3357 32.8699L10.3315 32.8701C10.0075 32.8817 9.56081 32.784 9.08275 32.6376C9.02743 32.6207 8.97169 32.6031 8.91568 32.585C8.65177 32.4995 8.38167 32.4017 8.12017 32.3014C7.67273 32.1297 7.25045 31.9508 6.9274 31.8139C6.91591 31.809 6.90454 31.8042 6.8933 31.7994C6.86035 31.7855 6.82851 31.772 6.79787 31.759C6.62945 31.6876 6.41473 31.625 6.17379 31.5685C5.87846 31.4992 5.54372 31.439 5.20656 31.3825L5.20528 31.3823C5.08495 31.3621 4.96432 31.3424 4.84507 31.3229C4.12388 31.2051 3.45296 31.0955 3.20429 30.9402ZM2.38275 31.5489L2.37966 31.5466C2.06477 31.3113 1.91982 31.0028 2.04386 30.5909C2.10733 30.3801 2.16924 30.1911 2.22612 30.0176C2.37629 29.5593 2.49141 29.2079 2.50771 28.8437C2.50798 28.8378 2.50821 28.8319 2.50842 28.826C2.517 28.5869 2.48267 28.3415 2.38746 28.0559C2.25936 27.6688 2.18666 27.2995 2.24479 26.9845L2.24523 26.9822C2.32222 26.57 2.62397 26.251 3.31995 26.1068C4.06675 25.9613 4.61312 25.7749 5.00449 25.4872C5.26146 25.2983 5.45161 25.0658 5.5878 24.7727C5.82793 24.2598 6.11175 24.0262 6.26656 23.93C6.271 23.9273 6.27534 23.9246 6.27956 23.9221C6.34293 23.884 6.38149 23.8707 6.38149 23.8707C6.38149 23.8707 6.36237 23.8258 6.33774 23.7445C6.28191 23.5601 6.19782 23.1882 6.24437 22.7271C6.25652 22.6067 6.27756 22.4802 6.31035 22.3494C6.36327 22.1383 6.44677 21.9158 6.57272 21.6893C6.85547 21.1885 7.13696 20.3767 7.43795 19.5085C7.54918 19.1877 7.66308 18.8592 7.78069 18.5359C7.7816 18.5334 7.7825 18.5309 7.78341 18.5284C8.07632 17.7237 8.39229 16.9518 8.74748 16.4109C9.1755 15.7637 9.70799 15.056 10.1659 14.4474C10.169 14.4433 10.1721 14.4391 10.1752 14.435C10.1765 14.4333 10.1777 14.4317 10.179 14.43C10.4137 14.118 10.6283 13.8326 10.7983 13.5956C10.9795 13.343 11.1102 13.1452 11.1608 13.0287C11.1726 13.0017 11.184 12.9718 11.1948 12.9389C11.2369 12.811 11.271 12.6388 11.2967 12.4266C11.3092 12.3236 11.3197 12.2112 11.3282 12.0898C11.3348 11.9962 11.3402 11.8972 11.3444 11.7931C11.3467 11.736 11.3487 11.6774 11.3503 11.6173C11.3549 11.4402 11.3565 11.2501 11.3548 11.0479C11.3529 10.8187 11.3469 10.574 11.3368 10.3151C11.3291 10.1179 11.3189 9.91246 11.3063 9.69935C11.3025 9.63426 11.2979 9.56641 11.2926 9.49602C11.2871 9.422 11.281 9.34508 11.2744 9.26571C11.2662 9.16785 11.2574 9.06612 11.2482 8.96102C11.2443 8.91583 11.2403 8.87002 11.2363 8.82363C11.2359 8.81965 11.2356 8.81567 11.2353 8.81169C11.22 8.6347 11.2044 8.44929 11.1903 8.25762C11.1408 7.58436 11.1093 6.83388 11.1716 6.10013C11.2071 5.68217 11.273 5.26963 11.3833 4.87984C11.5987 4.11884 11.9834 3.44456 12.6417 2.98606C14.7115 1.54443 18.5514 1.34451 20.0323 4.72675C20.75 6.36362 20.7954 7.82791 20.8368 9.16301C20.8809 10.5825 20.9204 11.8559 21.7585 13.0355C23.3848 15.3176 25.5003 18.3532 26.1417 20.2407C26.5494 21.4458 26.4197 22.8096 26.271 23.6435C26.1858 24.1217 26.0943 24.4257 26.0943 24.4257C26.0943 24.4257 26.1308 24.4579 26.1876 24.5187C26.3922 24.7379 26.8598 25.3288 26.8367 26.1298C26.8364 26.1397 26.836 26.1496 26.8356 26.1595C26.8308 26.2547 26.8321 26.3458 26.8391 26.4329L26.8392 26.4345C26.8614 26.7078 26.9391 26.9425 27.0589 27.1458C27.1159 27.2425 27.1824 27.3321 27.2569 27.4152L27.2584 27.4169C27.5272 27.7161 27.9003 27.9327 28.3096 28.1018C29.0445 28.4054 29.3241 29.3178 28.4851 30.0424C28.4829 30.0443 28.4807 30.0462 28.4785 30.0481C28.3606 30.1491 28.2208 30.2464 28.0574 30.3378C27.8252 30.4683 27.5613 30.6124 27.2792 30.7665C26.6795 31.0941 25.9974 31.4667 25.3618 31.8487C25.1353 31.9849 24.9146 32.1223 24.7057 32.2593L24.7048 32.2599C24.5507 32.361 24.4031 32.4618 24.2642 32.5617C23.9464 32.7904 23.6743 33.0146 23.4761 33.2264C22.8653 33.876 22.0182 34.0545 21.3411 33.9865C21.3389 33.9863 21.3367 33.9861 21.3346 33.9859C21.0333 33.9549 20.766 33.875 20.5686 33.7663C19.9272 33.4195 19.5836 32.6252 19.5836 32.6252C19.5836 32.6252 19.3254 32.5602 18.902 32.4828C18.4526 32.4006 17.8171 32.3045 17.1067 32.2572C16.9135 32.2443 16.7147 32.2351 16.5127 32.2307L16.5074 32.2306C16.3205 32.2266 16.1307 32.2268 15.9399 32.2322C14.9876 32.2558 14.0589 32.3714 13.3768 32.4792C13.247 32.4998 13.1262 32.52 13.0158 32.5393C12.5671 32.6176 12.2912 32.6798 12.2912 32.6798C12.2912 32.6798 11.9952 33.4592 11.1196 33.7106C11.0387 33.7338 10.9529 33.7525 10.862 33.7656C10.6717 33.7932 10.4589 33.7965 10.2214 33.7663C9.44921 33.6715 8.60305 33.3595 7.74375 33.0426C7.31234 32.8836 6.87763 32.7233 6.44729 32.5886L6.44603 32.5882C5.98884 32.4452 5.53661 32.3312 5.09856 32.2784C4.02797 32.1509 2.94083 31.9637 2.38275 31.5489ZM4.85975 34.2641C4.038 34.1662 2.92126 34.0077 2.02885 33.6275C1.58116 33.4367 0.956595 33.0959 0.509047 32.4651C-0.0159172 31.7253 -0.120149 30.841 0.12877 30.0143C0.199963 29.7778 0.273314 29.554 0.331446 29.3767C0.349802 29.3206 0.366642 29.2693 0.381421 29.2236C0.45077 29.0091 0.482541 28.8967 0.499396 28.817C0.506176 28.7849 0.508597 28.7665 0.50941 28.7581C0.507663 28.7483 0.502739 28.7262 0.49011 28.6884L0.488719 28.6842C0.320391 28.1755 0.0469527 27.2035 0.387901 26.1985C0.810495 24.9529 1.88283 24.362 2.91433 24.1484L2.92594 24.146L2.93758 24.1437C3.46253 24.0415 3.69656 23.9459 3.79131 23.8933C3.92537 23.612 4.07502 23.3657 4.23342 23.1511C4.21138 22.4751 4.32912 21.6085 4.82487 20.7172L4.83112 20.7059C5.01793 20.3751 5.23235 19.7595 5.55608 18.8299C5.59667 18.7134 5.63898 18.5919 5.68317 18.4654C6.01698 17.5099 6.47326 16.2305 7.07573 15.3131L7.07926 15.3077C7.54186 14.6082 8.10708 13.8571 8.55571 13.2609C8.5763 13.2336 8.59664 13.2065 8.61672 13.1798C8.85476 12.8634 9.05074 12.6019 9.19865 12.3943C9.2448 12.3295 9.27904 12.2797 9.30371 12.2432C9.31924 12.1341 9.33473 11.9709 9.34462 11.7462C9.36558 11.27 9.35723 10.6193 9.30979 9.81746C9.30173 9.68041 9.28537 9.49399 9.26588 9.27201C9.19679 8.48528 9.08782 7.24441 9.165 6.11132C9.26467 4.6481 9.69729 2.59963 11.4985 1.34494C12.9241 0.352052 14.9028 -0.198341 16.8297 0.0660153C18.8581 0.344308 20.8188 1.53734 21.864 3.92366C22.7398 5.92128 22.7943 7.72361 22.8344 9.04884C22.8362 9.10893 22.838 9.16805 22.8398 9.22616C22.8844 10.6413 22.968 11.2841 23.388 11.8759C24.2024 13.0186 25.1648 14.3855 26.0081 15.7144C26.8276 17.0057 27.6317 18.4094 28.0354 19.5971L28.0363 19.5998C28.4923 20.9479 28.4526 22.3306 28.3457 23.2702C28.3174 23.5196 28.2828 23.7501 28.2468 23.9558C28.5441 24.4617 28.8529 25.2121 28.8369 26.1399C28.8927 26.1721 28.9697 26.2105 29.0732 26.2533C30.1391 26.6937 31.0024 27.7339 30.9997 29.0733C30.9969 30.4424 30.1097 31.4807 29.0356 32.0823C28.7624 32.2358 28.4798 32.39 28.1892 32.5486C27.6858 32.8233 27.1584 33.1112 26.6144 33.4308C25.7281 33.9517 25.1567 34.3576 24.9367 34.5927L24.9331 34.5966C24.1087 35.4732 23.0732 35.864 22.159 35.9689C21.2919 36.0683 20.3574 35.9311 19.6103 35.5217C19.0263 35.2042 18.612 34.7629 18.345 34.4156C18.2853 34.4055 18.2227 34.3954 18.1576 34.3853C17.5509 34.2913 16.7695 34.2096 15.9965 34.2314L15.9894 34.2316C15.1713 34.2518 14.3517 34.351 13.7234 34.4493C13.6373 34.4628 13.5555 34.4761 13.4784 34.4891C13.3978 34.5803 13.3084 34.6729 13.2094 34.7647C12.5028 35.4204 11.4097 35.9326 9.97281 35.7508C8.96459 35.6262 7.92432 35.2416 7.13375 34.9494C7.09028 34.9333 7.04756 34.9176 7.00565 34.9021C6.08167 34.5615 5.42041 34.3318 4.85975 34.2641ZM0.510263 28.7641L0.509919 28.7611L0.510263 28.7641ZM13.502 30.5651C14.0358 30.5871 14.8316 30.5746 15.8892 30.4388C15.8913 30.4385 15.8935 30.4382 15.8956 30.438C16.0068 30.4237 16.1208 30.408 16.2378 30.3908C16.4657 30.3568 16.6859 30.3062 16.8976 30.2425C17.7627 29.9826 18.4877 29.5052 19.0305 29.0491C19.046 29.036 19.0614 29.023 19.0766 29.0101C19.1578 28.9407 19.2347 28.872 19.3072 28.8048C19.8376 28.3133 20.1319 27.9021 20.1319 27.9021C20.1319 27.9021 20.1319 27.692 20.1354 27.3761C20.1356 27.36 20.1358 27.3435 20.136 27.3267L20.136 27.3244C20.1434 26.6938 20.1644 25.6903 20.2239 25.0614C20.2391 24.9006 20.2568 24.7643 20.2775 24.665C20.3088 24.5159 20.3856 24.4127 20.487 24.3426C20.4888 24.3414 20.4907 24.3401 20.4926 24.3388C20.864 24.0887 21.5536 24.2721 21.5536 24.2721C21.5536 24.2721 21.5766 24.1982 21.6097 24.0612C21.6536 23.8794 21.7155 23.5864 21.765 23.2081C21.7999 22.9409 21.8288 22.6311 21.8408 22.2878C21.8584 21.7841 21.8399 21.2083 21.7515 20.5892C21.5325 19.0527 19.8763 15.0982 18.8786 12.9939C18.8105 12.8501 18.7453 12.7149 18.684 12.5897C18.6406 12.5012 18.5988 12.4172 18.5594 12.3391C18.3767 11.9774 18.2393 11.7337 18.171 11.656C18.1652 11.6495 18.16 11.6441 18.1553 11.64C18.0483 11.5469 17.7496 11.6516 17.3577 11.849C17.3505 11.8527 17.3432 11.8563 17.3359 11.8601C17.2323 11.9127 17.1224 11.9716 17.0081 12.0348L17.0061 12.0359C16.7769 12.1626 16.5297 12.3068 16.2787 12.4531C16.2009 12.4984 16.1228 12.544 16.0448 12.5893C16.0156 12.6062 15.9864 12.6231 15.9572 12.64C15.5072 12.9001 15.0648 13.1465 14.7116 13.2919C14.6562 13.3147 14.6031 13.335 14.5524 13.3525C14.5204 13.3635 14.489 13.3736 14.4591 13.3823C14.4294 13.3908 14.3992 13.3975 14.3687 13.4026C14.2179 13.4279 14.059 13.4129 13.8978 13.3689C13.6728 13.3076 13.4432 13.19 13.2241 13.0468C13.1413 12.9926 13.0599 12.9347 12.9809 12.8748C12.979 12.8734 12.9772 12.872 12.9754 12.8706C12.5047 12.5128 12.1182 12.0848 11.9916 11.9391C11.9629 11.9062 11.9476 11.8876 11.9476 11.8876C11.9514 11.8994 11.9551 11.9113 11.9585 11.9235C12.0555 12.2664 12.0023 12.7877 11.8524 13.3288L11.8512 13.3329C11.8357 13.3886 11.8192 13.4446 11.8017 13.5005C11.7216 13.7574 11.621 14.0148 11.5058 14.2562C11.3476 14.5876 11.1616 14.8888 10.9626 15.1161C10.6049 15.5296 10.3132 16.3755 10.0189 17.2458L10.0173 17.2506C10.01 17.2722 10.0026 17.2939 9.99533 17.3155C9.73193 18.0946 9.4649 18.8845 9.14503 19.3934C8.65307 20.1678 8.28808 21.4891 8.30811 22.6545C8.3082 22.6594 8.30829 22.6644 8.30839 22.6693C8.30849 22.6741 8.30859 22.6788 8.3087 22.6836C8.31162 22.8121 8.31928 22.9387 8.33202 23.0623C8.34836 23.2209 8.37306 23.3747 8.40686 23.5217C8.44336 23.6804 8.49047 23.8311 8.5491 23.9713C8.59666 24.085 8.66325 24.1999 8.74526 24.3155C8.95172 24.6065 9.25592 24.9024 9.60024 25.1972L9.60296 25.1995C9.88823 25.4436 10.2009 25.6869 10.5083 25.9261C10.6436 26.0314 10.7779 26.1359 10.9084 26.2394C11.5994 26.7871 12.1832 27.3042 12.2453 27.7483C12.2691 27.9195 12.2615 28.0669 12.2319 28.1935C12.2281 28.2101 12.2238 28.2264 12.2192 28.2423C12.0444 28.847 11.3585 28.9491 11.3585 28.9491L12.6871 30.4848C12.6871 30.4848 12.7279 30.4935 12.8096 30.5055C12.8463 30.5109 12.8911 30.5169 12.9442 30.5231C13.0779 30.5387 13.2639 30.5554 13.502 30.5651ZM12.635 11.5501C12.6609 11.5791 12.6881 11.608 12.7162 11.6367C12.838 11.7612 12.9777 11.8819 13.1119 11.9872C13.1874 12.0466 13.2612 12.101 13.329 12.1484C13.3389 12.1554 13.3488 12.1622 13.3585 12.1689C13.3779 12.1822 13.3967 12.1949 13.4148 12.2069C13.4908 12.2563 13.5603 12.304 13.6257 12.3489C13.6624 12.3741 13.6978 12.3984 13.7322 12.4215C13.8263 12.4848 13.9132 12.5393 14.0006 12.5805C14.0805 12.6181 14.1608 12.6444 14.2475 12.6559L14.2523 12.6565C14.3168 12.6646 14.385 12.6644 14.4591 12.6545C14.7109 12.621 15.3008 12.2988 15.8442 11.9788C15.8739 11.9613 15.9034 11.9439 15.9328 11.9264C15.9717 11.9033 16.0103 11.8803 16.0483 11.8575C16.0599 11.8506 16.0713 11.8437 16.0828 11.8368C16.2511 11.7357 16.4086 11.6394 16.5422 11.5577C16.552 11.5517 16.5617 11.5458 16.5712 11.5399C16.5751 11.5376 16.5789 11.5352 16.5828 11.5329C16.6125 11.5147 16.6408 11.4974 16.6677 11.481C16.6999 11.4612 16.7311 11.4425 16.7611 11.4248C16.8976 11.3443 17.0116 11.2845 17.1063 11.2348C17.3627 11.1002 17.4777 11.0398 17.5138 10.8456C17.5401 10.6884 17.3964 10.5314 17.1892 10.3983C17.0708 10.3223 16.9317 10.2541 16.7916 10.1982C16.7502 10.1817 16.7088 10.1663 16.6677 10.152C16.6077 10.1302 16.5331 10.1014 16.4482 10.0679C16.3556 10.0313 16.2506 9.98898 16.1386 9.94389C16.0465 9.9068 15.9497 9.8678 15.8512 9.8285C15.8481 9.82728 15.8451 9.82606 15.842 9.82483C15.8396 9.8239 15.8373 9.82296 15.8349 9.82203C15.777 9.79895 15.7185 9.77579 15.6601 9.75288C15.5391 9.70542 15.4183 9.65902 15.3032 9.61656C15.2938 9.6131 15.2844 9.60965 15.2751 9.60624C15.2355 9.59172 15.1966 9.57771 15.1586 9.56433C14.9659 9.49632 14.7979 9.44441 14.6842 9.42435C14.5584 9.40099 14.4082 9.43751 14.252 9.50707C14.2072 9.52705 14.1618 9.54976 14.1164 9.57456C14.088 9.59009 14.0595 9.60644 14.0311 9.62345L14.03 9.62414C14.0271 9.6259 14.0241 9.62766 14.0212 9.62943C13.9557 9.66913 13.8907 9.71227 13.8275 9.75694C13.7861 9.78624 13.7455 9.8162 13.7061 9.84626C13.6938 9.85562 13.6816 9.86498 13.6696 9.87433C13.663 9.87951 13.6563 9.88468 13.6498 9.88985C13.589 9.93762 13.5317 9.985 13.4794 10.0298C13.4242 10.0771 13.3745 10.1214 13.3322 10.1603C13.3305 10.1619 13.3288 10.1635 13.3271 10.165C13.3139 10.1772 13.3013 10.1889 13.2896 10.1999C13.2728 10.2152 13.2545 10.2314 13.2352 10.2484C13.218 10.2635 13.1999 10.2791 13.1811 10.2952C13.1468 10.3246 13.1101 10.3555 13.0721 10.3872C13.0169 10.433 12.9588 10.4806 12.9008 10.5276C12.6485 10.732 12.3977 10.9258 12.3977 10.9258C12.3511 11.0067 12.3586 11.1043 12.4029 11.21C12.43 11.275 12.4711 11.343 12.522 11.412C12.5557 11.4578 12.5938 11.504 12.635 11.5501ZM12.8266 9.68993C12.8565 9.6622 12.8865 9.63373 12.9169 9.60455C12.9237 9.59805 12.931 9.591 12.9378 9.58443L12.9418 9.58052C12.9525 9.5702 12.9632 9.5598 12.9739 9.54932C12.9799 9.54355 12.9858 9.53775 12.9917 9.53193C12.9825 9.53507 12.9736 9.53818 12.9648 9.54128C12.9577 9.54377 12.9506 9.54626 12.9434 9.54874C12.9398 9.54998 12.9361 9.55122 12.9324 9.55245C12.9241 9.55385 12.9157 9.55501 12.9073 9.55591C12.8376 9.56346 12.7683 9.5539 12.7014 9.52951C12.6936 9.52667 12.6859 9.52364 12.6782 9.5204C12.6751 9.51912 12.6721 9.51782 12.6691 9.51648C12.6555 9.51049 12.642 9.50389 12.6287 9.4967C12.4992 9.42688 12.3818 9.30132 12.2915 9.13795C12.2765 9.11089 12.2623 9.08279 12.2488 9.05373C12.2078 8.9649 12.1743 8.86713 12.1503 8.76275C12.1438 8.73435 12.138 8.70545 12.1329 8.67612L12.132 8.67108C12.1314 8.66702 12.1307 8.66296 12.1301 8.65891C12.1298 8.65637 12.1294 8.65384 12.129 8.6513C12.1277 8.64191 12.1264 8.63253 12.1252 8.62317C12.1227 8.60279 12.1205 8.58249 12.1188 8.5623C12.1143 8.50953 12.1126 8.45753 12.1135 8.40664C12.1145 8.35573 12.1181 8.30595 12.1242 8.25767C12.1267 8.23764 12.1297 8.21781 12.1331 8.19832C12.1388 8.16516 12.1458 8.13282 12.154 8.10143C12.1905 7.96104 12.2503 7.83977 12.3288 7.74928C12.3374 7.73936 12.3462 7.72981 12.3552 7.72065C12.3604 7.71538 12.3657 7.71025 12.371 7.70524L12.3721 7.70422C12.3757 7.70092 12.3792 7.69767 12.3829 7.69448C12.4472 7.63755 12.5213 7.59911 12.6032 7.58396C12.6052 7.58359 12.6072 7.58323 12.6093 7.58288C12.6936 7.57013 12.7784 7.58334 12.8598 7.61819C12.9584 7.66042 13.0519 7.73442 13.1337 7.83251C13.1455 7.84667 13.1571 7.86133 13.1684 7.87647C13.1986 7.91706 13.227 7.96109 13.2531 8.00811C13.262 8.02427 13.2707 8.04077 13.2791 8.05761C13.2993 8.09829 13.318 8.14112 13.3347 8.18547C13.3436 8.20905 13.3519 8.23311 13.3597 8.25762C13.3685 8.28563 13.3767 8.31439 13.384 8.3435C13.3931 8.37953 13.4009 8.41635 13.4075 8.45386L13.4081 8.45744C13.4088 8.46186 13.4095 8.46627 13.4101 8.47068C13.4196 8.53419 13.4252 8.59704 13.427 8.65853C13.4297 8.74875 13.4245 8.83605 13.412 8.91823L13.4116 8.92124C13.4028 8.97775 13.3907 9.03181 13.3753 9.08273C13.3637 9.12131 13.3502 9.15808 13.335 9.19273C13.3308 9.20247 13.3264 9.21203 13.3218 9.22142C13.318 9.22939 13.314 9.23724 13.31 9.24495C13.3154 9.23949 13.3208 9.23408 13.3263 9.22871C13.3488 9.2067 13.372 9.18534 13.396 9.16412C13.3975 9.16275 13.3991 9.16139 13.4006 9.16003C13.4283 9.13559 13.4569 9.11129 13.4862 9.08631C13.4995 9.07501 13.513 9.06358 13.5266 9.05193C13.6716 8.92431 13.8221 8.84061 13.9731 8.78671C13.9879 8.78145 14.0026 8.77646 14.0174 8.77175C14.0294 8.70931 14.0397 8.64687 14.048 8.58382C14.0573 8.51284 14.0639 8.44108 14.0673 8.36764C14.0675 8.36291 14.0677 8.35817 14.0679 8.35343C14.068 8.35037 14.0681 8.3473 14.0683 8.34424L14.0684 8.3413C14.0693 8.31368 14.0698 8.2858 14.0698 8.25762C14.0698 8.24724 14.0698 8.23689 14.0697 8.22655C14.069 8.16961 14.0665 8.11332 14.0623 8.0578C14.0577 7.99581 14.0508 7.93466 14.042 7.87474C14.0226 7.74371 13.9934 7.61803 13.9557 7.49944C13.8524 7.17426 13.6847 6.90243 13.4771 6.71978C13.3758 6.63065 13.265 6.56275 13.1475 6.52026C13.0553 6.48688 12.9589 6.46918 12.8598 6.46918C12.718 6.46918 12.5823 6.5049 12.4564 6.57067C12.4505 6.57374 12.4446 6.57686 12.4388 6.58006C11.9976 6.82208 11.6812 7.4353 11.6578 8.17032C11.6569 8.19924 11.6565 8.22834 11.6564 8.25762C11.6564 8.29826 11.6574 8.33859 11.6592 8.37856C11.6596 8.38718 11.66 8.39577 11.6605 8.40435C11.6666 8.51501 11.6795 8.62286 11.6985 8.72695C11.6992 8.73088 11.7 8.7348 11.7007 8.73871L11.7018 8.74436L11.7028 8.74987C11.7124 8.79978 11.7235 8.84881 11.7359 8.89684C11.7379 8.90462 11.7399 8.91238 11.742 8.92011C11.7871 9.08764 11.8486 9.24276 11.9234 9.38096C11.9775 9.48071 12.0385 9.57165 12.1052 9.65209C12.2203 9.79071 12.3526 9.89833 12.4958 9.96581C12.5388 9.93483 12.5814 9.902 12.6238 9.86747C12.6884 9.81482 12.7527 9.75818 12.8179 9.69798C12.8208 9.6953 12.8237 9.69262 12.8266 9.68993ZM18.2214 8.68484C18.2309 8.65158 18.2396 8.6179 18.2476 8.58382C18.2867 8.41683 18.3076 8.24028 18.3076 8.0577C18.3076 7.01572 17.6256 6.16848 16.7794 6.16848C16.7754 6.16848 16.7714 6.1685 16.7675 6.16854C16.385 6.17215 16.0371 6.34881 15.7714 6.63794C15.5585 6.86971 15.3984 7.17375 15.3157 7.51887C15.3015 7.57774 15.2897 7.63781 15.2802 7.69891C15.2622 7.81514 15.2527 7.93512 15.2527 8.0578C15.2527 8.08565 15.2532 8.11334 15.2542 8.14087C15.2545 8.14935 15.2548 8.15781 15.2552 8.16625C15.2563 8.18857 15.2576 8.21077 15.2592 8.23286C15.2599 8.24113 15.2605 8.24939 15.2612 8.25762C15.2708 8.3697 15.2882 8.47868 15.3125 8.58382C15.3383 8.69552 15.3718 8.80289 15.4119 8.90504C15.4151 8.90628 15.4184 8.90754 15.4216 8.90879C15.517 8.94545 15.624 8.98667 15.7398 9.03208C15.8178 9.06269 15.8999 9.09521 15.9852 9.12951C16.0247 9.1454 16.0649 9.16166 16.1057 9.17831C16.0695 9.10812 16.0393 9.02985 16.0164 8.94686C15.9934 8.86346 15.9777 8.7753 15.9708 8.68581C15.9682 8.65194 15.9669 8.61788 15.9669 8.58382C15.9669 8.47025 15.9806 8.3606 16.0058 8.25762C16.0216 8.19321 16.0419 8.13141 16.0662 8.07289C16.0683 8.06786 16.0704 8.06286 16.0725 8.05788C16.1063 7.97939 16.1475 7.90694 16.1945 7.84237C16.1998 7.83512 16.2052 7.82797 16.2106 7.82091C16.3555 7.63276 16.5527 7.51624 16.7675 7.51624C16.7715 7.51624 16.7754 7.51628 16.7794 7.51635L16.7836 7.51645C17.0792 7.52407 17.3333 7.74107 17.4686 8.0577C17.5071 8.14758 17.5359 8.24549 17.5534 8.34891C17.5554 8.36063 17.5573 8.37242 17.559 8.38428C17.561 8.39836 17.5628 8.41253 17.5644 8.4268C17.5701 8.47809 17.573 8.53052 17.573 8.58382C17.573 8.92186 17.4524 9.22576 17.2621 9.41975C17.2582 9.42379 17.2542 9.42778 17.2502 9.43172C17.1916 9.48915 17.1267 9.53633 17.0569 9.57115C17.1255 9.60015 17.1911 9.62878 17.2545 9.65648C17.289 9.67154 17.3229 9.68632 17.3563 9.70075C17.3918 9.7161 17.4268 9.73104 17.4614 9.74547C17.5113 9.71494 17.5596 9.68112 17.6062 9.64425C17.8548 9.44756 18.0536 9.16394 18.1751 8.82818C18.1921 8.78138 18.2075 8.73357 18.2214 8.68484ZM21.7666 25.8758C21.721 25.5152 21.7516 25.2198 21.7516 25.2198C21.7516 25.2198 21.6783 25.2022 21.581 25.2021C21.4903 25.2021 21.3788 25.2174 21.2865 25.2765C21.276 25.2832 21.2657 25.2906 21.2558 25.2985C21.1878 25.3532 21.163 25.5202 21.1611 25.7475C21.1601 25.8778 21.1666 26.0288 21.1767 26.1888C21.1779 26.2065 21.179 26.2244 21.1802 26.2424C21.1894 26.3785 21.2009 26.521 21.2124 26.6639C21.2291 26.8701 21.2458 27.0772 21.2558 27.268C21.2649 27.4502 21.2592 27.6646 21.2415 27.9021C21.225 28.1234 21.1981 28.3648 21.1632 28.6188C21.1623 28.6252 21.1614 28.6317 21.1605 28.6382C21.0996 29.0774 21.0151 29.5538 20.9194 30.029C20.8787 30.231 20.8359 30.4328 20.7921 30.6315C20.7758 30.7081 20.7625 30.7833 20.7521 30.8568C20.6851 31.3319 20.7385 31.7419 20.8663 32.0701C20.9495 32.2837 21.0643 32.4628 21.1979 32.6026C21.2004 32.6053 21.203 32.608 21.2056 32.6106C21.2477 32.654 21.2917 32.6935 21.3371 32.729C21.3974 32.7761 21.4602 32.8162 21.5247 32.8489C21.5752 32.8745 21.6267 32.8956 21.6788 32.9119C21.9909 33.012 22.4061 32.8862 22.8392 32.6307L22.8412 32.6294C23.2422 32.3925 23.6583 32.0446 24.0218 31.6619C24.0295 31.6538 24.0371 31.6457 24.0448 31.6376C24.0575 31.6241 24.0707 31.6105 24.0844 31.5969C24.1895 31.4924 24.3228 31.3844 24.4761 31.2747C24.7797 31.0574 25.162 30.8333 25.5605 30.6159C25.6107 30.5885 25.6612 30.5612 25.7118 30.534C25.9239 30.4202 26.1383 30.3087 26.3457 30.2016C26.3529 30.1979 26.36 30.1942 26.3672 30.1905C26.4181 30.1642 26.4685 30.1382 26.5183 30.1125C26.7496 29.9933 26.9685 29.8805 27.1614 29.777C27.1904 29.7614 27.2187 29.7461 27.2465 29.731C27.3817 29.6573 27.502 29.5889 27.6018 29.5269L27.6031 29.526C27.6663 29.4867 27.7212 29.45 27.7666 29.4161C27.7951 29.3948 27.8201 29.3744 27.8407 29.3555C27.9711 29.2332 27.9921 29.1109 27.9422 28.9914C27.8267 28.7156 27.333 28.4548 26.9344 28.2444C26.903 28.2279 26.8722 28.2116 26.8422 28.1956C26.7768 28.1607 26.7149 28.1182 26.6566 28.0695C26.5924 28.0159 26.5325 27.9547 26.4772 27.8876C26.4738 27.8834 26.4703 27.8792 26.4669 27.875C26.1375 27.4668 25.9722 26.8482 26.0028 26.3798C26.0089 26.2841 26.0047 26.1986 25.9932 26.1225L25.9924 26.1174C25.9289 25.7099 25.6576 25.5736 25.6576 25.5736C25.6576 25.5736 25.6425 25.6057 25.6143 25.6598C25.5656 25.7534 25.4779 25.9127 25.3621 26.0859C25.3602 26.0888 25.3582 26.0917 25.3563 26.0946C25.305 26.1708 25.2483 26.2496 25.1871 26.3264L25.186 26.3279C25.129 26.3993 25.0682 26.4691 25.0043 26.5336C24.9631 26.5752 24.9117 26.6186 24.8518 26.6624C24.824 26.6827 24.7943 26.7031 24.763 26.7235C24.626 26.8125 24.4569 26.9007 24.2686 26.9768C24.1948 27.0067 24.1181 27.0347 24.0393 27.0602C23.972 27.082 23.9031 27.1019 23.8331 27.1196C23.6451 27.1672 23.4493 27.1985 23.255 27.2057C23.2521 27.2058 23.2492 27.2059 23.2462 27.206C23.1221 27.2101 22.9987 27.2043 22.8784 27.1864C22.8746 27.1858 22.8709 27.1852 22.8671 27.1846L22.862 27.1839C22.7293 27.1628 22.6007 27.127 22.4793 27.0734C22.4231 27.0488 22.3712 27.0197 22.3231 26.987C22.2562 26.9413 22.1968 26.8884 22.1442 26.8301C22.0405 26.7151 21.9628 26.5789 21.905 26.4352C21.8417 26.2781 21.8021 26.112 21.7777 25.9548C21.7772 25.9517 21.7767 25.9487 21.7763 25.9457C21.7727 25.9222 21.7695 25.8989 21.7666 25.8758ZM21.4217 31.8316C21.4195 31.8275 21.4174 31.8235 21.4154 31.8199C21.4128 31.8149 21.4107 31.8108 21.4091 31.8077M26.0993 29.0785L26.0827 29.1412C26.1009 29.1312 26.119 29.1212 26.1371 29.1113C26.1245 29.1005 26.1119 29.0896 26.0993 29.0785Z" fill="#CCCCCC"></path></svg>